<svg xmlns="http://www.w3.org/2000/svg" viewBox="0 0 120 120"><defs><style>.cls-1{fill:#fff;}</style></defs><title>Asset 3</title><g id="Layer_2" data-name="Layer 2"><g id="Layer_1-2" data-name="Layer 1"><path class="cls-1" d="M39.48,96.93l-1-2.77h-.74v2.77h-.89V90.56h1.79a1.63,1.63,0,0,1,1.77,1.76,1.61,1.61,0,0,1-1,1.67l1,2.93Zm-.87-5.5h-.83V93.3h.83a.94.94,0,0,0,0-1.87Z"/><path class="cls-1" d="M43.07,96.93V90.56H44v6.37Z"/><path class="cls-1" d="M48.47,97c-1.37,0-1.87-1.46-1.87-3.27s.55-3.29,1.9-3.29c1.06,0,1.5.65,1.66,1.55l-.9.23c-.12-.57-.29-.88-.78-.88-.77,0-1,1.25-1,2.37s.25,2.39,1,2.39c.43,0,.63-.29.8-1l.83.26C50,96.37,49.51,97,48.47,97Z"/><path class="cls-1" d="M55.33,96.93V94H53.55v2.95h-.89V90.56h.89v2.55h1.78V90.56h.89v6.37Z"/><path class="cls-1" d="M62.46,96.93V94.36c0-.4,0-1.33,0-1.57C62.4,93,62.13,94,62,94.44l-.82,2.66-.82-2.66c-.15-.46-.42-1.39-.49-1.65,0,.25,0,1.17,0,1.57v2.56H59V90.56H60l.82,2.65c.12.38.34,1.16.39,1.39.06-.24.28-1,.4-1.42l.82-2.62h.93v6.37Z"/><path class="cls-1" d="M67.85,97c-1.35,0-1.91-1.43-1.91-3.27s.57-3.29,1.92-3.29,1.93,1.43,1.93,3.27S69.2,97,67.85,97Zm0-5.67c-.77,0-1,1.2-1,2.38s.25,2.4,1,2.4,1-1.2,1-2.38S68.62,91.35,67.84,91.35Z"/><path class="cls-1" d="M75.23,96.93l-1.54-3.41c-.13-.27-.36-.86-.45-1,0,.24,0,1,0,1.27v3.18h-.87V90.56h.89l1.37,3c.13.27.36.86.45,1,0-.24,0-1,0-1.27v-2.8H76v6.37Z"/><path class="cls-1" d="M80.32,96.93H78.77V90.56h1.55c1.41,0,2,1.26,2,3.16S81.66,96.93,80.32,96.93Zm0-5.49h-.63v4.62h.66c.85,0,1.1-1.22,1.1-2.34S81.18,91.44,80.29,91.44Z"/><path class="cls-1" d="M40.92,29.84V26.89H39.14v2.95h-.89V23.47h.89V26h1.78V23.47h.89v6.37Z"/><path class="cls-1" d="M44.65,29.84V23.47h.89v6.37Z"/><path class="cls-1" d="M48.38,29.84V23.47h.89V29h2v.87Z"/><path class="cls-1" d="M53.72,29.84V23.47h.89V29h2v.87Z"/><path class="cls-1" d="M64.07,29.94c-1.37,0-1.87-1.46-1.87-3.27s.55-3.29,1.9-3.29c1.06,0,1.5.65,1.66,1.55l-.9.23c-.12-.57-.29-.88-.78-.88-.77,0-1,1.25-1,2.37s.25,2.39,1,2.39c.43,0,.63-.29.8-1l.83.26C65.56,29.28,65.12,29.94,64.07,29.94Z"/><path class="cls-1" d="M68.29,29.84V23.47h.89v6.37Z"/><path class="cls-1" d="M73.71,24.35v5.49h-.89V24.35H71.64v-.87h3.24v.87Z"/><path class="cls-1" d="M79.61,27v2.85h-.89V27L77.1,23.47h1l.56,1.33c.14.32.44,1.11.5,1.33.06-.23.36-1,.49-1.34l.55-1.32h1Z"/><polygon class="cls-1" points="50.8 83.92 50.8 63.15 34.68 63.15 34.68 83.92 28.38 83.92 28.38 36.08 34.68 36.08 34.68 56.85 50.8 56.85 50.8 36.08 57.1 36.08 57.1 83.92 50.8 83.92"/><polygon class="cls-1" points="69.33 83.92 63.35 77.95 63.35 42.04 69.33 36.08 85.65 36.08 91.62 42.04 91.62 47.58 85.32 47.58 85.32 42.38 69.66 42.38 69.66 77.62 85.32 77.62 85.32 72.42 91.62 72.42 91.62 77.95 85.65 83.92 69.33 83.92"/><path class="cls-1" d="M60,120a60,60,0,1,1,60-60A60.07,60.07,0,0,1,60,120ZM60,7a53,53,0,1,0,53,53A53.06,53.06,0,0,0,60,7Z"/></g></g></svg>