<svg id="Layer_1" data-name="Layer 1" xmlns="http://www.w3.org/2000/svg" viewBox="0 0 110.15 110.15"><defs><style>.cls-1{fill:#d9a429;}.cls-2{fill:#fff;}</style></defs><title>logo</title><circle class="cls-1" cx="55.08" cy="55.08" r="55.08"/><path class="cls-2" d="M97.07-88.76c0-20.79,2.06-24.77,2.06-24.77,0-1.52-2.54-1.55-5.67-1.55s-5.67,0-5.67,1.55c0,0,2,4.81,2,24.88,0,7.46-.27,13.47-0.61,18.08a64.6,64.6,0,0,0,8.19-6C97.17-80.07,97.07-84.12,97.07-88.76Z" transform="translate(-65.32 138.75)"/><path class="cls-2" d="M164.83-68.11c-0.62-.13-1.38.77-2.32,1.78-4.11,4.39-7.72,6.42-14.39,6.42q-7.78,0-12.46-6.94T131-83.76c0-6.63.67-9.66,3.1-14.47,1.22-2.54,1.05-2.74,2.89-4.71a30.31,30.31,0,0,0-6.64,4.7c-1.9,1.76-4.85,4.77-8,8-0.6,2.77-.36,3-0.36,6.22q0,12.89,6.54,21.22t18.52,8.33c8,0,13.33-3.33,17.41-9.36C164.5-63.81,167-67.41,164.83-68.11Z" transform="translate(-65.32 138.75)"/><path class="cls-2" d="M165.64-103.65C161-111.83,143.43-128,117-97c0.46-13.55,1.8-16.44,1.8-16.44,0-1.61-2.41-1.64-5.38-1.64s-5.38,0-5.38,1.64c0,0,1.82,5,1.86,25.61A113,113,0,0,1,97.33-74.38,65,65,0,0,1,89.14-68c-5,3.22-10,5.06-14.31,4.41-1.42-.21-0.93,1.46-0.54,1.74,2.48,1.75,7.11,3.52,14.26.55-0.41,3.7-.76,5.52-0.76,5.52,0,1.6,2.54,1.4,5.67,1.4s5.67,0.2,5.67-1.4A93.8,93.8,0,0,1,97.77-67a88.36,88.36,0,0,0,11.63-11.43l0.38-.42c-0.39,15.56-1.76,23-1.76,23,0,1.6,2.41,1.4,5.38,1.4s5.38,0.2,5.38-1.4c0,0-1.91-9.23-2-30.64,1.93-2.07,4-4.32,6.1-6.46,3.11-3.26,6.06-6.27,8-8a40.1,40.1,0,0,1,9.93-6.6,13.11,13.11,0,0,1,2.9-1.14,18.38,18.38,0,0,1,19.78,6C165.46-100.25,166.25-102.58,165.64-103.65Z" transform="translate(-65.32 138.75)"/></svg>